<svg width="1024" height="1024" viewBox="0 0 1024 1024" fill="none" xmlns="http://www.w3.org/2000/svg">
<path d="M203 641.88H381.8C381.8 713.68 440 771.92 511.84 771.92V950.72C341.28 950.72 203 812.44 203 641.88Z" fill="black"/>
<path d="M511.84 601.24C341.28 601.24 203 462.96 203 292.4H381.8C381.8 364.2 440 422.44 511.84 422.44C682.4 422.44 820.68 560.72 820.68 731.28H641.88C641.88 659.48 583.68 601.24 511.84 601.24Z" fill="black"/>
<path d="M820.68 381.8H641.88C641.88 310 583.68 251.76 511.84 251.76V73C682.387 73 820.658 211.258 820.68 381.8Z" fill="black"/>
</svg>
