<svg width="1024" height="1024" viewBox="0 0 1024 1024" fill="none" xmlns="http://www.w3.org/2000/svg">
<g clip-path="url(#clip0_180_3)">
<rect width="1024" height="1024" fill="black"/>
<path d="M950.88 0H0V1024H1024V0H950.84H950.88ZM512.04 601.4C341.48 601.4 203.2 463.12 203.2 292.56H382C382 364.36 440.2 422.6 512.04 422.6C682.6 422.6 820.88 560.88 820.88 731.44H642.08C642.08 659.64 583.88 601.4 512.04 601.4ZM820.88 381.96H642.08C642.08 310.16 583.88 251.92 512.04 251.92V73.16C682.6 73.16 820.88 211.44 820.88 382V381.96ZM203.2 642.04H382C382 713.84 440.2 772.08 512.04 772.08V950.88C341.48 950.88 203.2 812.6 203.2 642.04Z" fill="white"/>
</g>
<defs>
<clipPath id="clip0_180_3">
<rect width="1024" height="1024" fill="white"/>
</clipPath>
</defs>
</svg>
