<svg width="1024" height="1024" viewBox="0 0 1024 1024" fill="none" xmlns="http://www.w3.org/2000/svg">
<g clip-path="url(#clip0_12_50)">
<rect width="1024" height="1024" fill="black"/>
<g clip-path="url(#clip1_12_50)">
<path d="M910.388 48H48.6526V976H976.653V48H910.351H910.388ZM512.689 593.019C358.119 593.019 232.803 467.702 232.803 313.133H394.84C394.84 378.201 447.584 430.981 512.689 430.981C667.259 430.981 792.575 556.298 792.575 710.867H630.538C630.538 645.799 577.794 593.019 512.689 593.019ZM792.575 394.151H630.538C630.538 329.082 577.794 276.303 512.689 276.303V114.301C667.259 114.301 792.575 239.618 792.575 394.188V394.151ZM232.803 629.849H394.84C394.84 694.917 447.584 747.698 512.689 747.698V909.735C358.119 909.735 232.803 784.419 232.803 629.849Z" fill="white"/>
</g>
<rect x="27.5" y="27.5" width="969" height="969" stroke="white" stroke-width="55"/>
</g>
<defs>
<clipPath id="clip0_12_50">
<rect width="1024" height="1024" fill="white"/>
</clipPath>
<clipPath id="clip1_12_50">
<rect width="928" height="928" fill="white" transform="translate(48 48)"/>
</clipPath>
</defs>
</svg>
